<svg xmlns="http://www.w3.org/2000/svg" viewBox="0 0 512 512" width="512" height="512">
  <defs>
    <linearGradient id="micGradient" x1="0%" y1="0%" x2="100%" y2="100%">
      <stop offset="0%" style="stop-color:#6366f1;stop-opacity:1" />
      <stop offset="100%" style="stop-color:#8b5cf6;stop-opacity:1" />
    </linearGradient>
    <linearGradient id="bgGradient" x1="0%" y1="0%" x2="100%" y2="100%">
      <stop offset="0%" style="stop-color:#1e1b4b;stop-opacity:1" />
      <stop offset="100%" style="stop-color:#312e81;stop-opacity:1" />
    </linearGradient>
  </defs>
  
  <rect x="0" y="0" width="512" height="512" rx="100" ry="100" fill="url(#bgGradient)"/>
  
  <g transform="translate(256, 256)">
    <path d="M0 -140 C-60 -140 -100 -100 -100 -40 L-100 40 C-100 100 -60 140 0 140 C60 140 100 100 100 40 L100 -40 C100 -100 60 -140 0 -140 Z" fill="url(#micGradient)" stroke="#ffffff" stroke-width="8"/>
    
    <rect x="-120" y="-30" width="240" height="60" rx="30" fill="url(#micGradient)" stroke="#ffffff" stroke-width="8"/>
    
    <path d="M-80 180 L-80 220 C-80 280 -40 320 0 320 C40 320 80 280 80 220 L80 180" fill="none" stroke="#ffffff" stroke-width="12" stroke-linecap="round"/>
    
    <circle cx="0" cy="220" r="20" fill="#ffffff"/>
    
    <path d="M-150 180 L150 180" stroke="#ffffff" stroke-width="12" stroke-linecap="round"/>
    
    <path d="M-200 180 L-240 180" stroke="#ffffff" stroke-width="12" stroke-linecap="round"/>
    <path d="M200 180 L240 180" stroke="#ffffff" stroke-width="12" stroke-linecap="round"/>
  </g>
</svg>