<svg xmlns="http://www.w3.org/2000/svg" viewBox="0 0 512 512" width="512" height="512">
  <defs>
    <linearGradient id="bgGradient" x1="0%" y1="0%" x2="100%" y2="100%">
      <stop offset="0%" stop-color="#0f766e" />
      <stop offset="100%" stop-color="#164e63" />
    </linearGradient>
    <linearGradient id="waveGradient" x1="0%" y1="0%" x2="0%" y2="100%">
      <stop offset="0%" stop-color="#14b8a6" />
      <stop offset="100%" stop-color="#0f766e" />
    </linearGradient>
    <radialGradient id="glowGradient" cx="30%" cy="18%" r="65%">
      <stop offset="0%" stop-color="#ccfbf1" stop-opacity="0.30" />
      <stop offset="100%" stop-color="#ccfbf1" stop-opacity="0" />
    </radialGradient>
    <filter id="shadow" x="-20%" y="-20%" width="140%" height="140%">
      <feDropShadow dx="0" dy="14" stdDeviation="18" flood-color="#042f2e" flood-opacity="0.28" />
    </filter>
  </defs>

  <rect x="24" y="24" width="464" height="464" rx="112" fill="url(#bgGradient)" />
  <circle cx="170" cy="112" r="180" fill="url(#glowGradient)" />

  <g filter="url(#shadow)">
    <rect x="92" y="108" width="328" height="240" rx="88" fill="#f8f6f0" />
    <path d="M178 326 L132 392 C126 401 135 411 147 407 L240 376 Z" fill="#f8f6f0" />
  </g>

  <g>
    <rect x="156" y="194" width="34" height="110" rx="17" fill="url(#waveGradient)" />
    <rect x="217" y="168" width="34" height="162" rx="17" fill="url(#waveGradient)" />
    <rect x="278" y="208" width="34" height="96" rx="17" fill="url(#waveGradient)" />
    <circle cx="352" cy="172" r="24" fill="#fb923c" />
  </g>
</svg>
